<svg id="Capa_1" enable-background="new 0 0 512 512" height="512" viewBox="0 0 512 512" width="512" xmlns="http://www.w3.org/2000/svg"><g><g><path d="m7.5 92.354h497v32.325h-497z" fill="#4a80aa"/></g><g><path d="m478.236 92.354h26.264v32.325h-26.264z" fill="#407093"/></g><g><path d="m7.5 472.175h497v32.325h-497z" fill="#4a80aa"/></g><g><path d="m269.731 472.175c9.663 12.566 21.34 23.504 34.548 32.325h200.221v-32.325z" fill="#407093"/></g><g><path d="m23.663 124.679h464.675v347.496h-464.675z" fill="#f4fbff"/></g><g><path d="m462.073 124.679v139.137c-21.638-17.808-43.812-23.979-77.783-23.979-79.652 0-144.453 64.801-144.453 144.453 0 33.041 11.158 63.52 29.894 87.884h218.606v-347.495z" fill="#e4f6ff"/></g><g><path d="m6.49 246.909h274.764v175.768h-274.764z" fill="#9d6b6b" transform="matrix(0 1 -1 0 478.665 190.921)"/></g><g><path d="m81.242 321.661h274.764v26.264h-274.764z" fill="#8b5e5e" transform="matrix(0 1 -1 0 553.417 116.169)"/></g><g><path d="m101.445 216.604h84.854v111.118h-84.854z" fill="#bed8fb" transform="matrix(0 1 -1 0 416.035 128.291)"/></g><g><path d="m127.709 386.311h32.325v74.752h-32.325z" fill="#4a80aa" transform="matrix(0 1 -1 0 567.559 279.815)"/></g><g><path d="m266.102 195.39h187.89v191.931h-187.89z" fill="#bed8fb" transform="matrix(0 1 -1 0 651.403 -68.691)"/></g><g><path d="m456.012 258.934c-21.145-12.145-45.637-19.096-71.722-19.096-50.081 0-94.286 25.622-120.209 64.442v81.021h191.931z" fill="#9dc6fb"/></g><g><g><path d="m100.435 92.354h-54.549l10.102-84.854h44.447z" fill="#b3e59f"/></g><g><path d="m100.435 7.5h44.447v84.854h-44.447z" fill="#ffe07d"/></g><g><path d="m144.882 7.5h44.447v84.854h-44.447z" fill="#b3e59f"/></g><g><path d="m189.329 7.5h44.447v84.854h-44.447z" fill="#ffe07d"/></g><g><path d="m233.776 7.5h44.447v84.854h-44.447z" fill="#b3e59f"/></g><g><path d="m278.224 7.5h44.447v84.854h-44.447z" fill="#ffe07d"/></g><g><path d="m322.671 7.5h44.447v84.854h-44.447z" fill="#b3e59f"/></g><g><path d="m367.118 7.5h44.447v84.854h-44.447z" fill="#ffe07d"/></g><g><path d="m466.114 92.354h-54.549v-84.854h44.447z" fill="#b3e59f"/></g></g><g><g><circle cx="384.291" cy="384.291" fill="#ffe07d" r="120.209"/></g><g><path d="m342.874 476.215c-14.394 0-28.371-1.779-41.732-5.115 21.592 20.687 50.885 33.4 83.149 33.4 66.39 0 120.209-53.82 120.209-120.209 0-6.134-.462-12.16-1.349-18.048-24.802 64.328-87.205 109.972-160.277 109.972z" fill="#ffd064"/></g><g><g><path d="m384.291 305.498s-19.289 23.109-19.289 54.92c0 5.083.496 10.009 1.324 14.703-1.914-2.5-4.013-4.943-6.338-7.268-20.564-20.564-48.433-22.571-48.433-22.571s2.008 27.869 22.571 48.433c3.912 3.912 8.152 7.212 12.452 9.997-1.399-.104-2.817-.16-4.253-.16-23.177 0-40.013 14.467-40.013 14.467s16.836 14.467 40.013 14.467c2.739 0 5.414-.208 8.007-.564-5.258 10.308-3.012 23.068-3.012 23.068s16.07.808 26.522-9.644c5.551-5.551 8.841-13.054 10.448-17.682 1.607 4.627 4.897 12.131 10.448 17.682 10.452 10.452 26.522 9.644 26.522 9.644s2.246-12.759-3.012-23.068c2.593.356 5.267.564 8.007.564 23.177 0 40.013-14.467 40.013-14.467s-16.836-14.467-40.013-14.467c-1.436 0-2.854.056-4.253.16 4.3-2.784 8.54-6.084 12.452-9.997 20.564-20.564 22.571-48.433 22.571-48.433s-27.869 2.008-48.433 22.571c-2.325 2.325-4.424 4.768-6.338 7.268.827-4.694 1.324-9.62 1.324-14.703.002-31.811-19.287-54.92-19.287-54.92z" fill="#b3e59f"/></g></g></g><g><path d="m206.931 229.736c0-4.142-3.357-7.5-7.5-7.5h-111.118c-4.143 0-7.5 3.358-7.5 7.5v84.854c0 4.142 3.357 7.5 7.5 7.5h111.117c4.143 0 7.5-3.358 7.5-7.5v-84.854zm-15 77.353h-96.118v-69.854h96.117v69.854z"/><path d="m106.496 400.024c-4.143 0-7.5 3.358-7.5 7.5v32.325c0 4.142 3.357 7.5 7.5 7.5h74.752c4.143 0 7.5-3.358 7.5-7.5v-32.325c0-4.142-3.357-7.5-7.5-7.5zm67.252 32.326h-59.752v-17.325h59.752z"/><path d="m206.931 346.915c0-4.142-3.357-7.5-7.5-7.5h-20.203c-4.143 0-7.5 3.358-7.5 7.5s3.357 7.5 7.5 7.5h20.203c4.142 0 7.5-3.358 7.5-7.5z"/><path d="m512 384.291c0-22.534-5.874-43.719-16.16-62.117v-98.674c0-4.142-3.357-7.5-7.5-7.5s-7.5 3.358-7.5 7.5v77.284c-5.243-6.054-11.049-11.608-17.328-16.589v-86.785c0-4.142-3.357-7.5-7.5-7.5h-191.931c-4.143 0-7.5 3.358-7.5 7.5v187.89c0 .115.012.226.017.34.312 29.912 10.956 57.39 28.53 79.029h-45.868v-129.279c0-4.142-3.357-7.5-7.5-7.5s-7.5 3.358-7.5 7.5v129.28h-160.77v-259.76h160.77v95.48c0 4.142 3.357 7.5 7.5 7.5s7.5-3.358 7.5-7.5v-102.98c0-4.142-3.357-7.5-7.5-7.5h-175.77c-4.143 0-7.5 3.358-7.5 7.5v267.26h-17.33v-61.869c0-4.142-3.357-7.5-7.5-7.5s-7.5 3.358-7.5 7.5v61.869h-8.66c-4.143 0-7.5 3.358-7.5 7.5v32.33c0 4.142 3.357 7.5 7.5 7.5h497c4.143 0 7.5-3.358 7.5-7.5v-32.33c0-4.142-3.357-7.5-7.5-7.5h-8.66v-18.262c10.286-18.399 16.16-39.583 16.16-62.117zm-240.419-179.38h176.931v69.031c-18.879-11.03-40.823-17.36-64.221-17.36-48.746 0-91.194 27.456-112.71 67.711zm112.71 66.671c62.148 0 112.709 50.561 112.709 112.709s-50.561 112.709-112.709 112.709-112.71-50.561-112.71-112.709 50.562-112.709 112.71-112.709zm-369.291 225.418v-17.33h284.464c7.534 6.708 15.863 12.538 24.828 17.33zm482 0h-52.711c8.966-4.792 17.294-10.623 24.828-17.33h27.883z"/><path d="m339.934 456.288c.606 3.446 3.516 6.015 7.011 6.19.741.036 17.341.734 29.847-9.685v10.29c0 4.142 3.357 7.5 7.5 7.5s7.5-3.358 7.5-7.5v-10.293c10.808 9.006 24.672 9.71 28.717 9.71.635 0 1.028-.017 1.13-.022 3.494-.176 6.402-2.744 7.01-6.19.189-1.076 1.31-8.094-.061-16.348 24.442-.896 41.819-15.591 42.569-16.235 1.658-1.425 2.612-3.502 2.612-5.688s-.954-4.264-2.612-5.688c-.615-.529-12.43-10.52-30.156-14.582 21.13-22.124 23.419-50.698 23.507-51.926.156-2.171-.638-4.303-2.177-5.842-1.541-1.54-3.676-2.336-5.843-2.177-1.112.08-24.66 1.964-45.528 18.021-1.674-31.726-20.091-54.148-20.91-55.13-1.425-1.707-3.534-2.694-5.758-2.694s-4.333.987-5.758 2.694c-.819.982-19.236 23.405-20.91 55.131-20.868-16.058-44.417-17.942-45.529-18.022-2.179-.16-4.303.639-5.843 2.177-1.539 1.539-2.333 3.671-2.177 5.842.088 1.228 2.374 29.802 23.507 51.926-17.727 4.062-29.541 14.053-30.156 14.582-1.658 1.425-2.612 3.502-2.612 5.688s.954 4.264 2.612 5.688c.75.645 18.128 15.339 42.57 16.235-1.371 8.254-.252 15.272-.062 16.348zm-23.923-38.27c7.049-3.744 17.749-7.744 30.011-6.828 3.408.245 6.573-1.841 7.665-5.089 1.093-3.248-.155-6.823-3.032-8.686-4.182-2.708-7.958-5.737-11.225-9.004-11.083-11.083-16.221-24.744-18.551-33.804 9.065 2.331 22.725 7.469 33.806 18.55 1.958 1.958 3.87 4.152 5.685 6.522 2.101 2.745 5.807 3.7 8.972 2.31s4.971-4.764 4.371-8.168c-.803-4.555-1.21-9.064-1.21-13.402 0-17.685 6.671-32.615 11.789-41.466 5.118 8.852 11.789 23.781 11.789 41.466 0 4.334-.407 8.843-1.21 13.402-.601 3.404 1.204 6.778 4.369 8.168 3.165 1.391 6.87.437 8.972-2.308 1.818-2.375 3.731-4.57 5.687-6.524 11.082-11.083 24.743-16.221 33.804-18.55-2.33 9.065-7.469 22.725-18.55 33.806-3.269 3.269-7.045 6.298-11.225 9.003-2.876 1.862-4.125 5.438-3.032 8.687 1.092 3.248 4.237 5.332 7.665 5.089 12.285-.917 23.005 3.101 30.05 6.847-6.298 3.356-15.559 6.947-26.354 6.947-2.247 0-4.598-.167-6.986-.494-2.77-.381-5.517.81-7.135 3.086-1.617 2.277-1.836 5.264-.566 7.752 1.907 3.738 2.525 8.054 2.647 11.561-4.35-.803-9.969-2.645-14.174-6.85-4.681-4.681-7.439-11.306-8.666-14.839-1.048-3.017-3.892-5.039-7.085-5.039s-6.037 2.022-7.085 5.039c-1.227 3.532-3.984 10.157-8.667 14.84-4.206 4.206-9.827 6.048-14.173 6.851.122-3.51.74-7.825 2.646-11.563 1.27-2.488 1.051-5.475-.567-7.752-1.418-1.996-3.705-3.156-6.112-3.156-.339 0-.68.023-1.021.07-2.389.328-4.739.494-6.986.494-10.7-.002-19.985-3.607-26.316-6.968z"/><path d="m504.5 84.854h-31.726l-9.315-78.24c-.449-3.773-3.648-6.614-7.447-6.614h-400.024c-3.799 0-6.998 2.841-7.447 6.613l-9.315 78.24h-31.726c-4.143 0-7.5 3.358-7.5 7.5v32.325c0 4.142 3.357 7.5 7.5 7.5h8.66v235.622c0 4.142 3.357 7.5 7.5 7.5s7.5-3.358 7.5-7.5v-235.621h449.68v56.321c0 4.142 3.357 7.5 7.5 7.5s7.5-3.358 7.5-7.5v-56.321h8.66c4.143 0 7.5-3.358 7.5-7.5v-32.325c0-4.143-3.357-7.5-7.5-7.5zm-46.832 0h-38.603v-69.854h30.286zm-83.05 0v-69.854h29.447v69.854zm-44.447 0v-69.854h29.447v69.854zm-44.447 0v-69.854h29.447v69.854zm-44.448 0v-69.854h29.447v69.854zm-44.447 0v-69.854h29.447v69.854zm-44.447 0v-69.854h29.447v69.854zm-44.447 0v-69.854h29.447v69.854zm-45.287-69.854h30.286v69.854h-38.602zm434.352 102.179h-482v-17.325h482z"/></g></g></svg>